HIERARCHY
ROOT Hips
{
	OFFSET 0.000000 0.000000 0.000000
	CHANNELS 6 Xposition Yposition Zposition Zrotation Yrotation Xrotation 
	JOINT LHipJoint
	{
		OFFSET 0.000000 0.000000 0.000000
		CHANNELS 3 Zrotation Yrotation Xrotation
		JOINT LeftUpLeg
		{
			OFFSET 1.363060 -1.794630 0.839290
			CHANNELS 3 Zrotation Yrotation Xrotation
			JOINT LeftLeg
			{
				OFFSET 2.448110 -6.726130 0.000000
				CHANNELS 3 Zrotation Yrotation Xrotation
				JOINT LeftFoot
				{
					OFFSET 2.562200 -7.039590 0.000000
					CHANNELS 3 Zrotation Yrotation Xrotation
					JOINT LeftToeBase
					{
						OFFSET 0.157640 -0.433110 2.322550
						CHANNELS 3 Zrotation Yrotation Xrotation
						End Site
						{
							OFFSET 0.000000 0.000000 0.000000
						}
					}
				}
			}
		}
	}
	JOINT RHipJoint
	{
		OFFSET 0.000000 0.000000 0.000000
		CHANNELS 3 Zrotation Yrotation Xrotation
		JOINT RightUpLeg
		{
			OFFSET -1.305520 -1.794630 0.839290
			CHANNELS 3 Zrotation Yrotation Xrotation
			JOINT RightLeg
			{
				OFFSET -2.542530 -6.985550 0.000000
				CHANNELS 3 Zrotation Yrotation Xrotation
				JOINT RightFoot
				{
					OFFSET -2.568260 -7.056230 0.000000
					CHANNELS 3 Zrotation Yrotation Xrotation
					JOINT RightToeBase
					{
						OFFSET -0.164730 -0.452590 2.363150
						CHANNELS 3 Zrotation Yrotation Xrotation
						End Site
						{
							OFFSET 0.000000 0.000000 0.000000
						}
					}
				}
			}
		}
	}
}
MOTION
Frames: 31
Frame Time: 0.008333
-11.908662 16.879604 -1.933474 148.722044 87.261312 165.511568 -11.082464 2.803253 -1.588027 -4.326713 3.605066 1.943700 -1.360055 0.978266 17.581150 0.485889 2.602403 2.536843 0.463000 0.000001 -77.165000 8.312110 0.308691 2.068198 6.712250 5.786734 -39.421928 2.100964 -0.317828 12.643643 -1.114547 -6.249462 5.708132 -2.425500 0.000000 -22.824600
-11.731225 16.897065 -1.908355 157.341141 87.479421 174.188068 -11.136241 2.887265 -1.537359 -3.688820 3.456164 1.372308 -1.206775 1.164288 19.203885 0.526221 2.680666 4.117079 0.518601 -0.000000 -79.444200 8.316774 0.291047 2.027320 7.212714 6.144242 -39.290637 2.091946 -0.415288 13.755401 -1.155027 -6.394400 5.340824 -2.417800 -0.000001 -22.122900
-11.555709 16.916414 -1.880725 164.658285 87.695210 -178.438344 -11.235562 2.987370 -1.491244 -3.114850 3.397799 0.647232 -1.055567 1.360032 21.004374 0.582245 2.741371 5.884217 0.567200 0.000001 -81.153200 8.288883 0.287406 1.974424 7.698743 6.467624 -39.090781 2.087088 -0.486365 14.800130 -1.191071 -6.501788 4.780180 -2.377100 0.000000 -21.415600
-11.382320 16.937358 -1.850453 170.573746 87.875527 -172.467701 -11.375110 3.079012 -1.450658 -2.604463 3.419184 -0.228956 -0.899532 1.552162 22.979705 0.656218 2.795640 7.811660 0.608400 0.000000 -82.107800 8.224947 0.278031 1.920609 8.155940 6.748472 -38.816646 2.086262 -0.533396 15.735243 -1.229299 -6.595368 4.061279 -2.312000 0.000000 -20.691500
-11.211181 16.959586 -1.817592 175.176643 88.006601 -167.808783 -11.535079 3.145813 -1.416065 -2.153660 3.504856 -1.247480 -0.737048 1.730221 25.116327 0.750320 2.870630 9.842704 0.647699 0.000000 -82.152500 8.138332 0.254848 1.874480 8.581854 6.983633 -38.466211 2.090758 -0.558834 16.522120 -1.273672 -6.690573 3.229279 -2.230300 -0.000000 -19.956500
-11.042413 16.982847 -1.782469 178.673857 88.091669 -164.253475 -11.697321 3.180893 -1.387063 -1.758665 3.639353 -2.395720 -0.572061 1.888717 27.391832 0.865451 3.005540 11.895510 0.698400 -0.000000 -81.184900 8.043863 0.218369 1.839899 8.981506 7.173594 -38.039022 2.102267 -0.563799 17.132208 -1.324623 -6.793187 2.332989 -2.138000 0.000000 -19.208900
-10.876168 17.006916 -1.745378 -178.859073 88.136086 -161.726626 -11.845559 3.182521 -1.363840 -1.428242 3.803115 -3.651011 -0.410815 2.025563 29.775248 1.000235 3.253788 13.870339 0.785100 0.000000 -79.176101 7.955624 0.172271 1.816453 9.352763 7.311698 -37.538677 2.121210 -0.550478 17.553909 -1.379076 -6.894221 1.418517 -2.037800 -0.000000 -18.480200
-10.712435 17.031687 -1.706975 -177.106935 88.153140 -159.914121 -11.977193 3.154087 -1.346360 -1.155402 3.989162 -4.997578 -0.260302 2.143964 32.238460 1.150608 3.658360 15.662459 0.933300 0.000000 -76.225000 7.876135 0.120129 1.802292 9.705643 7.400972 -36.965205 2.148922 -0.518503 17.778335 -1.433231 -6.987868 0.529845 -1.934500 0.000000 -17.766400
-10.551342 17.057024 -1.667692 -175.989235 88.148672 -158.740800 -12.086768 3.099231 -1.336755 -0.947140 4.185165 -6.408525 -0.124520 2.248331 34.746859 1.311423 4.263919 17.179044 1.171100 0.000001 -72.524700 7.810292 0.065094 1.792786 10.038252 7.434724 -36.322025 2.184826 -0.470692 17.814907 -1.481695 -7.057502 -0.298143 -1.830300 0.000000 -17.099900
-10.392873 17.082885 -1.628018 -175.345475 88.129670 -158.051056 -12.174712 3.023014 -1.336904 -0.801734 4.384995 -7.860953 -0.004694 2.344685 37.268057 1.477795 5.095952 18.350953 1.516100 -0.000000 -68.364300 7.758063 0.009132 1.783581 10.352831 7.412439 -35.611500 2.228399 -0.409239 17.677275 -1.520014 -7.091742 -1.039099 -1.728000 -0.000001 -16.496300
-10.236987 17.109277 -1.588393 -175.024570 88.101700 -157.698097 -12.243481 2.930296 -1.347248 -0.715753 4.581853 -9.335557 0.100739 2.438361 39.770102 1.646606 6.161154 19.142967 1.971700 -0.000001 -64.118800 7.717694 -0.046797 1.771302 10.651478 7.336919 -34.837754 2.278754 -0.336565 17.384665 -1.544910 -7.083027 -1.675946 -1.630800 0.000000 -15.960800
-10.083648 17.136149 -1.549009 -174.983052 88.070049 -157.643411 -12.292816 2.825075 -1.369635 -0.689727 4.770095 -10.810446 0.194675 2.533082 42.223254 1.815719 7.442824 19.543422 2.523500 -0.000000 -60.052200 7.690220 -0.101310 1.751991 10.931077 7.210718 -34.005126 2.333876 -0.256358 16.963783 -1.554185 -7.025040 -2.202879 -1.539900 0.000000 -15.508800
-9.932746 17.163493 -1.510051 -175.156387 88.039919 -157.824881 -12.324375 2.710826 -1.403861 -0.721203 4.945843 -12.271238 0.280303 2.630716 44.601587 1.984219 8.902692 19.566965 3.141100 -0.000001 -56.402100 7.674950 -0.153809 1.724046 11.189744 7.041485 -33.119672 2.391764 -0.171583 16.441412 -1.547700 -6.918418 -2.623507 -1.456300 -0.000000 -15.135601
-9.784043 17.191218 -1.471468 -175.525465 88.017073 -158.223152 -12.338912 2.590347 -1.449703 -0.807369 5.108285 -13.708361 0.360088 2.731563 46.883907 2.150747 10.482042 19.239832 3.780500 -0.000000 -53.241499 7.671949 -0.203708 1.687325 11.424310 6.839634 -32.189099 2.450061 -0.084996 15.844357 -1.526985 -6.768232 -2.949870 -1.379700 0.000000 -14.828900
-9.637388 17.219228 -1.433144 -176.099472 88.006734 -158.847161 -12.336523 2.465822 -1.505891 -0.946429 5.257276 -15.114621 0.435824 2.834056 49.048646 2.314126 12.115013 18.611058 4.395900 0.000000 -50.653300 7.681785 -0.250555 1.643110 11.630630 6.616518 -31.221046 2.506399 0.001122 15.196918 -1.494757 -6.582390 -3.200387 -1.309200 -0.000000 -14.569400
-9.492481 17.247319 -1.394913 -176.905850 88.013649 -159.720504 -12.317283 2.339072 -1.571139 -1.135282 5.395713 -16.489163 0.508088 2.936115 51.079885 2.471335 13.725852 17.728568 4.939900 -0.000000 -48.535600 7.704787 -0.294080 1.593876 11.805515 6.384509 -30.224422 2.558752 0.085308 14.518822 -1.454595 -6.371196 -3.397053 -1.243200 0.000000 -14.330800
-9.349068 17.275299 -1.356494 -178.003524 88.041074 -160.898610 -12.280593 2.211434 -1.643042 -1.371282 5.525024 -17.831400 0.576888 3.034404 52.959856 2.619358 15.246597 16.661343 5.379001 0.000000 -46.877999 7.741884 -0.334180 1.542552 11.945803 6.153606 -29.206610 2.605435 0.166661 13.824415 -1.410026 -6.144559 -3.561498 -1.180100 -0.000000 -14.087600
-9.206928 17.302923 -1.317700 -179.469693 88.090061 -162.454360 -12.226004 2.083768 -1.718828 -1.651398 5.646198 -19.143314 0.641685 3.125389 54.674369 2.754309 16.616920 15.480464 5.692801 0.000000 -45.622300 7.793606 -0.371022 1.492574 12.049727 5.932432 -28.175186 2.645459 0.245119 13.121003 -1.364268 -5.911492 -3.713425 -1.118400 0.000001 -13.813400
-9.065775 17.329907 -1.278360 178.590638 88.159347 -164.487725 -12.153242 1.956364 -1.795748 -1.972251 5.759483 -20.427853 0.701657 3.205598 56.212189 2.871832 17.788236 14.253177 5.875400 0.000000 -44.676100 7.860448 -0.405196 1.446598 12.116513 5.725100 -27.135775 2.678419 0.320904 12.411035 -1.319500 -5.677783 -3.867309 -1.057099 -0.000000 -13.492600
-8.925384 17.356017 -1.238368 176.038134 88.243679 -167.134980 -12.062548 1.828763 -1.871003 -2.330019 5.863488 -21.686805 0.756159 3.271710 57.565606 2.967986 18.728145 13.040036 5.935100 -0.000000 -43.943500 7.942459 -0.437872 1.406836 12.146647 5.532181 -26.092995 2.704499 0.394394 11.692158 -1.276749 -5.445726 -4.031311 -0.995600 -0.000000 -13.118000
-8.785567 17.380951 -1.197767 172.710931 88.335195 -170.553505 -11.955712 1.698957 -1.941725 -2.720666 5.952947 -22.921379 0.804860 3.320354 58.726489 3.040840 19.427243 11.906387 5.896600 0.000000 -43.486300 8.038074 -0.470693 1.373981 12.142360 5.351041 -25.051553 2.724472 0.465941 10.959554 -1.235926 -5.214419 -4.206577 -0.934000 0.000000 -12.699700
-8.646230 17.404493 -1.156652 168.382745 88.420892 -174.969997 -11.836139 1.564567 -2.005751 -3.140898 6.024352 -24.129783 0.847798 3.349082 59.694802 3.088171 19.882376 10.874400 5.778800 0.000000 -43.107700 8.144733 -0.506778 1.348208 12.105358 5.173892 -24.013194 2.739330 0.535259 10.208950 -1.195697 -4.977898 -4.390029 -0.872099 0.000000 -12.249400
-8.507240 17.426397 -1.115258 162.834853 88.486773 179.399695 -11.711374 1.421486 -2.060731 -3.587102 6.069729 -25.310750 0.885075 3.356131 60.467547 3.111138 20.114586 9.977418 5.611600 0.000000 -42.896900 8.255348 -0.549158 1.327708 12.038764 4.993506 -22.982000 2.750465 0.602191 9.436825 -1.154176 -4.729452 -4.572365 -0.810700 -0.000000 -11.799200
-8.368565 17.446470 -1.073859 155.799848 88.517742 172.285574 -11.592127 1.267215 -2.104765 -4.058843 6.084559 -26.459481 0.916166 3.342169 61.047594 3.110932 20.147211 9.205486 5.410800 0.000001 -42.703700 8.360292 -0.600913 1.309558 11.942784 4.799325 -21.958458 2.759107 0.666295 8.644694 -1.108598 -4.457937 -4.743965 -0.749900 0.000000 -11.376700
-8.230136 17.464528 -1.032804 147.144931 88.506541 163.556981 -11.491171 1.103239 -2.135877 -4.554399 6.065876 -27.574816 0.938541 3.312210 61.435625 3.090868 20.015668 8.550969 5.193200 -0.000000 -42.558600 8.447000 -0.661165 1.288965 11.819693 4.586732 -20.945390 2.766647 0.728544 7.838454 -1.056186 -4.153432 -4.893326 -0.690599 -0.000000 -11.018900
-8.091959 17.480429 -0.992489 136.934536 88.454745 153.278052 -11.415321 0.938129 -2.152535 -5.069820 6.016793 -28.656590 0.947750 3.275357 61.635062 3.054416 19.754978 7.984900 4.965800 0.000000 -42.409800 8.508459 -0.724338 1.260948 11.673292 4.354580 -19.943242 2.774186 0.790663 7.029431 -0.994242 -3.806246 -5.010660 -0.633100 0.000000 -10.754200
-7.954037 17.494065 -0.953163 125.539095 88.367199 141.818639 -11.359773 0.783779 -2.154692 -5.597293 5.942549 -29.704869 0.939575 3.240416 61.650910 3.005578 19.401230 7.476323 4.733300 0.000000 -42.242800 8.548659 -0.782010 1.221551 11.510445 4.104612 -18.952662 2.782502 0.853783 6.232230 -0.921082 -3.409829 -5.090193 -0.577300 -0.000001 -10.606700
-7.816321 17.505326 -0.915152 113.733002 88.249153 129.955408 -11.311215 0.647849 -2.143639 -6.120599 5.847045 -30.724132 0.912494 3.211619 61.493271 2.948025 18.984616 6.991709 4.496700 0.000000 -42.052300 8.578975 -0.828159 1.170463 11.345205 3.843837 -17.978257 2.792528 0.917691 5.459794 -0.837489 -2.967138 -5.131682 -0.523400 0.000000 -10.585600
-7.678777 17.514151 -0.878645 102.322120 88.100840 118.494737 -11.257988 0.529665 -2.121116 -6.625177 5.730150 -31.716685 0.868258 3.187124 61.174218 2.885116 18.530819 6.503544 4.256900 -0.000000 -41.840400 8.609325 -0.862554 1.109896 11.188481 3.578231 -17.026075 2.804722 0.980410 4.723478 -0.746179 -2.487259 -5.142951 -0.470899 -0.000000 -10.685000
-7.541363 17.520520 -0.843832 91.919360 87.925490 108.052201 -11.195593 0.423187 -2.087322 -7.097639 5.589659 -32.689247 0.810091 3.162811 60.707567 2.820121 18.062304 5.996910 4.017000 0.000000 -41.618900 8.642163 -0.889099 1.044791 11.050158 3.318835 -16.102285 2.819227 1.040451 4.029945 -0.651657 -1.987821 -5.136459 -0.420100 -0.000000 -10.882100
-7.404203 17.524397 -0.810410 82.599950 87.717242 98.697035 -11.122680 0.324910 -2.047165 -7.540802 5.429809 -33.628185 0.739013 3.135961 60.095225 2.754101 17.588085 5.457134 3.776100 -0.000000 -41.404200 8.679499 -0.908841 0.971756 10.922957 3.058636 -15.205565 2.834995 1.094716 3.395577 -0.555509 -1.469447 -5.130248 -0.369300 -0.000000 -11.184600
